<?xml version="1.0" standalone="no"?>
<!DOCTYPE svg PUBLIC "-//W3C//DTD SVG 20010904//EN"
 "http://www.w3.org/TR/2001/REC-SVG-20010904/DTD/svg10.dtd">
<svg version="1.0" xmlns="http://www.w3.org/2000/svg"
 width="173.000000pt" height="173.000000pt" viewBox="0 0 173.000000 173.000000"
 preserveAspectRatio="xMidYMid meet">
<metadata>
Created by potrace 1.11, written by Peter Selinger 2001-2013
</metadata>
<g transform="translate(0.000000,173.000000) scale(0.100000,-0.100000)"
fill="#000000" stroke="none">
<path d="M0 865 l0 -865 865 0 865 0 0 865 0 865 -865 0 -865 0 0 -865z m1591
792 c18 -12 44 -38 56 -56 l23 -34 1 -686 c1 -377 0 -697 -1 -711 -2 -31 -54
-88 -97 -106 -27 -11 -157 -14 -718 -14 -759 0 -729 -3 -781 66 l-29 37 -3
691 c-2 607 -1 696 13 732 17 45 35 65 80 88 26 14 114 16 726 16 l696 0 34
-23z"/>
<path d="M212 1540 c-12 -5 -27 -21 -32 -35 -6 -16 -10 -265 -10 -651 l0 -625
25 -24 24 -25 641 0 c627 0 640 0 660 20 20 20 20 33 20 663 0 540 -2 646 -14
663 -14 18 -34 19 -653 21 -371 1 -647 -2 -661 -7z m438 -355 l0 -185 205 0
205 0 0 185 0 185 85 0 85 0 0 -510 0 -510 -85 0 -85 0 0 240 0 240 -205 0
-205 0 0 -240 0 -240 -85 0 -85 0 0 510 0 510 85 0 85 0 0 -185z"/>
</g>
</svg>
