<?xml version="1.0" standalone="no"?>
<!DOCTYPE svg PUBLIC "-//W3C//DTD SVG 20010904//EN"
 "http://www.w3.org/TR/2001/REC-SVG-20010904/DTD/svg10.dtd">
<svg version="1.0" xmlns="http://www.w3.org/2000/svg"
 width="146.000000pt" height="146.000000pt" viewBox="0 0 146.000000 146.000000"
 preserveAspectRatio="xMidYMid meet">
<metadata>
Created by potrace 1.11, written by Peter Selinger 2001-2013
</metadata>
<g transform="translate(0.000000,146.000000) scale(0.100000,-0.100000)"
fill="#000000" stroke="none">
<path d="M138 1387 c-27 -20 -54 -55 -73 -92 l-30 -59 0 -500 c0 -487 1 -502
21 -546 28 -61 69 -107 118 -133 40 -22 48 -22 534 -25 570 -3 573 -3 647 73
76 78 75 74 75 631 0 533 0 536 -56 609 -14 19 -41 44 -59 55 -31 19 -48 20
-583 20 l-550 0 -44 -33z m1115 -72 c18 -8 43 -32 57 -52 l25 -37 3 -475 c3
-527 3 -531 -61 -581 l-31 -25 -496 -3 c-272 -1 -505 0 -516 3 -34 8 -93 73
-99 108 -3 18 -5 246 -3 507 l3 475 25 34 c45 61 38 60 573 61 415 0 494 -2
520 -15z"/>
<path d="M375 1168 c-3 -7 -4 -204 -3 -438 l3 -425 50 0 50 0 3 203 2 202 175
0 175 0 2 -202 3 -203 50 0 50 0 0 435 0 435 -50 0 -50 0 -3 -182 -2 -183
-175 0 -175 0 0 185 0 185 -50 0 c-31 0 -52 -5 -55 -12z"/>
<path d="M1090 447 c-21 -10 -26 -21 -28 -61 -5 -77 50 -114 98 -66 39 39 15
140 -32 140 -7 0 -24 -6 -38 -13z m60 -38 c18 -33 -2 -88 -32 -89 -16 0 -38
34 -38 59 0 50 49 71 70 30z"/>
</g>
</svg>
